# xmcd
#
# Track frame offsets: 
#        150
#        17388
#        34413
#        46188
#        61263
#        75513
#        91863
#        107838
#        126513
#        142338
#        157563
#        171213
#        187788
#        203088
#        216963
#        236613
#        251763
#        264138
#        280938
#        303438
#        332494
#
# Disc length: 4795 seconds
#
# Revision: 3
# Processed by: cddbd v1.5.2PL0 Copyright (c) Steve Scherf et al.
# Submitted via: ExactAudioCopy v0.99pb5
#
DISCID=1912b915
DTITLE=Various Artist - Bääärenstark (Herbst 2002) [CD1]
DYEAR=2002
DGENRE=Schlager
TTITLE0=Andrea Berg - Wirst du's in meinen Augen sehn
TTITLE1=Brunner and Brunner - Heut brauch ich dich zum Träumen (Live)
TTITLE2=Kristina Bach - Wahre Lügen
TTITLE3=Schürzenjäger - Morgen früh bin ich bei dir
TTITLE4=Patrick Lindner - Spiel den Sirtaki noch mal
TTITLE5=Nicole - Sommer, Sommer
TTITLE6=Roland Kaiser - Jeder gegen jeden
TTITLE7=Andrea Jürgens - Vaya vamos al la fiesta
TTITLE8=Bernhard Brink - Was ist denn jetzt kaputt
TTITLE9=Rosanna Rocci and Michael Morgan - Un Anno D'Amore
TTITLE10=Tommy Steiner - Es ist Sommer
TTITLE11=Olaf Berger - Hit Mix
TTITLE12=René Meyer - Auch wenn der Wind sich dreht
TTITLE13=Oliver Thomas - Mein zärtliches Wunder
TTITLE14=Inka - Sei happy
TTITLE15=Nino de Angelo - Sarah
TTITLE16=Ute Freudenberg - Ich hab noch lange nicht genug
TTITLE17=Münchener Freiheit - Wachgeküsst
TTITLE18=Stefan Waggershausen - Heut ist nicht mein Tag
TTITLE19=Matthias Reim - Jedesmal
TTITLE20=Data
EXTD=kopiergeschütze CD
EXTT0=
EXTT1=
EXTT2=
EXTT3=
EXTT4=
EXTT5=
EXTT6=
EXTT7=
EXTT8=
EXTT9=
EXTT10=
EXTT11=
EXTT12=
EXTT13=
EXTT14=
EXTT15=
EXTT16=
EXTT17=
EXTT18=
EXTT19=
EXTT20=
PLAYORDER=
